<?xml version="1.0" encoding="UTF-8"?>
<svg xmlns="http://www.w3.org/2000/svg" xmlns:xlink="http://www.w3.org/1999/xlink" width="595pt" height="507.2pt" viewBox="0 0 595 507.2" version="1.1">
<defs>
<clipPath id="clip1">
  <path d="M 0 0 L 595 0 L 595 507.199219 L 0 507.199219 Z M 0 0 "/>
</clipPath>
</defs>
<g id="surface1">
<g clip-path="url(#clip1)" clip-rule="nonzero">
<path style=" stroke:none;fill-rule:evenodd;fill:rgb(94.139099%,48.631287%,0%);fill-opacity:1;" d="M 55.546875 195.515625 C 55.546875 195.515625 58.921875 203.769531 55.984375 211.144531 C 53.046875 218.519531 48.296875 219.769531 47.171875 224.453125 C 46.046875 229.144531 43.039063 236.488281 45.601563 243.238281 C 45.601563 243.238281 50.289063 233.113281 53.039063 232.050781 C 55.789063 230.988281 63.101563 228.300781 63.101563 228.300781 L 66.726563 227.238281 C 66.726563 227.238281 69.382813 226.203125 70.914063 227.953125 C 72.445313 229.703125 79.414063 237.675781 79.414063 237.675781 L 83.664063 242.363281 L 84.726563 243.710938 C 84.726563 243.710938 86.351563 244.507813 87.164063 246.648438 C 87.976563 248.789063 88.863281 251.898438 88.832031 253.835938 L 94.613281 257.867188 C 94.613281 257.867188 96.925781 259.460938 95.207031 261.554688 C 93.488281 263.648438 88.457031 267.148438 86.707031 275.523438 C 84.957031 283.898438 83.832031 285.085938 80.207031 280.398438 C 76.582031 275.710938 79.082031 269.398438 79.082031 269.398438 C 79.082031 269.398438 75.582031 272.273438 75.707031 284.773438 C 75.832031 297.273438 75.082031 316.648438 74.332031 320.398438 C 73.582031 324.148438 67.953125 344.460938 67.953125 344.460938 C 67.953125 344.460938 84.453125 350.589844 91.640625 357.902344 C 98.828125 365.214844 98.703125 365.402344 99.578125 374.402344 C 100.453125 383.402344 100.640625 398.902344 100.640625 398.902344 C 100.640625 398.902344 108.765625 389.839844 111.140625 386.214844 C 113.515625 382.589844 119.449219 373.152344 120.886719 367.652344 C 120.886719 367.652344 120.757813 345.777344 124.882813 334.027344 C 129.007813 322.277344 135.882813 309.652344 142.007813 301.527344 C 148.132813 293.402344 154.382813 287.777344 162.132813 283.527344 C 169.882813 279.277344 180.632813 275.902344 186.632813 271.152344 C 186.632813 271.152344 185.628906 256.277344 182.503906 250.027344 C 179.382813 243.777344 174.941406 234.21875 167.566406 226.09375 C 160.191406 217.96875 155.316406 205.84375 154.441406 200.46875 C 153.566406 195.09375 151.316406 181.09375 153.441406 172.59375 C 155.566406 164.09375 157.691406 156.371094 157.691406 156.371094 L 158.25 154.371094 C 158.25 154.371094 158.933594 178.8125 162.933594 184.1875 C 166.933594 189.5625 177.683594 197.1875 177.683594 197.1875 L 180.964844 199.90625 C 180.964844 199.90625 181.152344 195.871094 179.464844 193.6875 C 177.777344 191.496094 176.777344 188.71875 176.777344 188.71875 C 176.777344 188.71875 182.898438 195.066406 186.492188 194.816406 L 187.703125 194.738281 C 187.703125 194.738281 183.859375 189.800781 182.140625 186.863281 C 180.421875 183.925781 178.574219 180.863281 178.324219 178.238281 C 178.074219 175.613281 177.636719 166.238281 177.636719 166.238281 L 176.886719 137.738281 C 176.886719 137.738281 175.949219 133.363281 174.199219 131.925781 C 172.449219 130.488281 173.007813 120.238281 173.007813 120.238281 L 170.007813 116.988281 C 170.007813 116.988281 171.640625 105.648438 172.382813 102.175781 C 173.128906 98.703125 174.195313 95.550781 174.195313 95.550781 L 156.132813 102.429688 C 156.132813 102.429688 162.820313 94.992188 163.820313 93.117188 C 164.820313 91.242188 170.722656 83.179688 170.722656 83.179688 C 170.722656 83.179688 162.441406 87.773438 161.003906 89.960938 C 161.003906 89.960938 160.9375 81.523438 170.003906 76.398438 C 170.003906 76.398438 158.066406 61.960938 158.316406 47.460938 C 158.316406 47.460938 158.1875 44.585938 159 42.085938 C 159 42.085938 163.375 56.273438 172.1875 59.210938 C 172.1875 59.210938 169.75 42.710938 171.375 34.960938 C 173 27.210938 175.183594 12.398438 181.058594 5.960938 C 181.058594 5.960938 181.871094 24.460938 198.621094 39.273438 C 198.621094 39.273438 200.804688 20.464844 204.054688 16.839844 C 204.054688 16.839844 202.367188 22.589844 207.742188 37.277344 C 207.742188 37.277344 214.554688 30.527344 220.367188 20.527344 C 226.179688 10.527344 230.988281 2.652344 230.988281 2.652344 C 230.988281 2.652344 235.132813 34.019531 235.863281 34.902344 C 236.59375 35.789063 256.988281 11.777344 262.988281 -0.0976563 C 262.988281 -0.0976563 270.988281 11.027344 272.738281 23.027344 C 272.738281 23.027344 296.488281 12.402344 305.863281 2.402344 C 305.863281 2.402344 306.238281 17.277344 302.113281 33.277344 C 302.113281 33.277344 315.613281 23.777344 323.363281 12.402344 C 323.363281 12.402344 327.488281 39.027344 324.613281 56.402344 C 324.613281 56.402344 331.613281 48.777344 339.238281 46.027344 C 339.238281 46.027344 333.996094 53.65625 334.988281 61.402344 C 334.988281 61.402344 343.738281 56.152344 351.613281 56.527344 C 351.613281 56.527344 339.988281 67.902344 339.113281 75.902344 C 339.113281 75.902344 350.113281 77.902344 356.613281 75.902344 C 356.613281 75.902344 340.988281 88.277344 340.363281 93.902344 C 339.738281 99.527344 359.863281 112.152344 359.863281 112.152344 L 338.613281 110.277344 C 338.613281 110.277344 339.773438 121.289063 343.050781 123.84375 C 343.050781 123.84375 335.988281 121.65625 332.800781 118.09375 L 331.613281 129.71875 L 332.863281 131.59375 C 332.863281 131.59375 342.675781 124.53125 350.800781 123.71875 C 358.925781 122.90625 367.363281 121.03125 378.613281 124.90625 C 389.863281 128.78125 408.238281 141.65625 408.238281 141.65625 C 408.238281 141.65625 416.800781 138.34375 420.988281 133.90625 C 425.175781 129.46875 429.609375 124.15625 430.609375 121.03125 C 431.609375 117.90625 443.359375 108.40625 446.984375 105.90625 C 450.609375 103.40625 464.484375 95.40625 467.109375 84.03125 C 469.734375 72.65625 469.859375 53.65625 469.859375 53.65625 C 469.859375 53.65625 469.859375 41.191406 456.109375 25.925781 C 456.109375 25.925781 475.859375 33.03125 482.359375 51.40625 C 482.359375 51.40625 491.984375 27.53125 501.484375 20.40625 C 510.984375 13.28125 515.859375 12.15625 523.234375 12.90625 C 530.609375 13.65625 544.234375 16.65625 551.359375 21.90625 C 558.484375 27.15625 566.359375 35.90625 576.734375 33.40625 C 587.109375 30.90625 591.859375 36.40625 595.109375 41.90625 C 598.359375 47.40625 597.984375 55.78125 598.359375 59.03125 C 598.734375 62.28125 598.546875 69.878906 601.171875 71.066406 C 603.796875 72.246094 605.171875 72.941406 608.921875 71.503906 C 612.671875 70.0625 618.421875 67.378906 622.171875 63.628906 C 625.921875 59.878906 630.484375 54.816406 631.109375 53.003906 C 631.109375 53.003906 621.484375 73.503906 616.859375 77.128906 C 616.859375 77.128906 629.859375 83.253906 634.234375 92.753906 C 634.234375 92.753906 616.859375 79.378906 601.359375 81.628906 C 585.859375 83.878906 575.230469 90.253906 569.355469 81.378906 C 563.480469 72.503906 544.480469 54.632813 529.355469 59.632813 C 514.230469 64.632813 506.855469 70.253906 500.355469 82.878906 C 493.855469 95.507813 495.667969 109.757813 498.042969 112.945313 C 500.417969 116.132813 522.605469 100.066406 531.730469 87.945313 C 540.855469 75.820313 538.167969 71.695313 538.167969 71.695313 C 538.167969 71.695313 546.917969 89.320313 536.667969 104.570313 C 526.417969 119.820313 511.730469 129.882813 501.855469 131.632813 C 491.980469 133.382813 488.980469 134.570313 484.355469 130.320313 C 479.730469 126.070313 467.792969 124.882813 461.605469 127.507813 C 455.417969 130.132813 442.789063 135.949219 437.914063 148.199219 C 437.914063 148.199219 435.035156 155.699219 433.535156 157.074219 L 446.847656 172.886719 C 446.847656 172.886719 462.597656 192.136719 469.722656 196.636719 C 476.847656 201.136719 487.722656 213.886719 514.722656 212.511719 C 541.722656 211.136719 547.722656 196.511719 548.097656 193.011719 C 548.472656 189.511719 546.222656 169.261719 543.722656 162.511719 C 541.222656 155.761719 538.347656 146.886719 540.222656 138.261719 C 542.097656 129.636719 549.097656 119.511719 560.097656 116.011719 C 571.097656 112.511719 571.597656 114.011719 571.597656 114.011719 C 571.597656 114.011719 555.097656 122.136719 552.347656 134.636719 C 549.597656 147.136719 548.625 154.382813 550.222656 162.011719 C 551.820313 169.644531 562.472656 178.886719 568.597656 183.136719 C 574.722656 187.386719 577.847656 192.761719 577.847656 192.761719 C 577.847656 192.761719 581.785156 200.140625 577.660156 205.515625 C 577.660156 205.515625 573.910156 212.140625 578.785156 212.140625 C 583.660156 212.140625 592.785156 209.640625 601.785156 202.640625 C 610.785156 195.640625 621.410156 186.390625 624.035156 173.265625 C 626.660156 160.140625 616.660156 143.136719 616.660156 143.136719 C 616.660156 143.136719 623.347656 145.703125 626.722656 153.078125 C 630.097656 160.453125 630.660156 164.328125 630.660156 164.328125 C 630.660156 164.328125 637.660156 150.453125 638.472656 146.265625 C 639.285156 142.078125 642.472656 122.078125 633.972656 107.203125 C 633.972656 107.203125 649.21875 119.953125 651.71875 135.203125 C 654.21875 150.453125 653.59375 176.328125 646.84375 190.078125 C 640.09375 203.828125 635.59375 208.203125 631.34375 212.703125 C 627.09375 217.203125 623.09375 219.953125 623.09375 219.953125 C 623.09375 219.953125 639.03125 208.765625 646.78125 207.203125 C 646.78125 207.203125 630.40625 222.765625 626.40625 229.640625 C 622.40625 236.515625 608.53125 247.890625 586.03125 246.265625 C 563.53125 244.640625 553.40625 240.890625 540.90625 240.890625 C 528.40625 240.890625 538.75 243.734375 538.75 243.734375 C 538.75 243.734375 551.1875 248.015625 557.5 251.390625 C 563.8125 254.765625 579.3125 255.140625 582.9375 253.890625 C 582.9375 253.890625 570.5625 260.769531 550.9375 261.519531 C 531.3125 262.269531 497.8125 253.019531 491.4375 249.769531 C 485.0625 246.519531 461.808594 229.894531 457.308594 223.519531 C 452.808594 217.144531 428.933594 182.519531 414.933594 171.644531 C 414.933594 171.644531 396.683594 177.894531 376.558594 172.644531 C 356.433594 167.394531 346.058594 158.519531 346.058594 158.519531 C 346.058594 158.519531 343.433594 156.269531 343.808594 161.078125 C 344.183594 165.894531 343.746094 183.703125 343.746094 183.703125 C 343.746094 183.703125 343.746094 187.828125 345.246094 190.328125 C 346.746094 192.828125 347.65625 197.769531 350.433594 199.828125 C 350.433594 199.828125 352.429688 182.492188 358.554688 175.992188 L 359.238281 175.433594 C 359.238281 175.433594 356.832031 189.683594 357.832031 194.058594 C 358.832031 198.433594 360.578125 209.683594 366.828125 219.308594 C 373.078125 228.933594 370.578125 234.058594 370.578125 234.058594 C 370.578125 234.058594 395.328125 245.308594 400.703125 248.808594 C 406.078125 252.308594 406.953125 253.433594 409.453125 254.433594 C 411.953125 255.433594 416.765625 258.058594 422.703125 257.746094 C 428.640625 257.433594 469.386719 276.058594 469.386719 276.058594 L 486.886719 283.121094 C 486.886719 283.121094 516.074219 277.746094 520.136719 276.371094 C 524.199219 274.996094 529.011719 272.433594 532.136719 277.246094 C 535.261719 282.058594 545.699219 297.871094 552.203125 312.246094 C 558.703125 326.621094 563.953125 331.496094 563.953125 331.496094 C 563.953125 331.496094 565.917969 333.371094 564.792969 341.746094 C 563.667969 350.121094 552.855469 364.121094 552.855469 364.121094 L 505.792969 360.4375 C 505.792969 360.4375 484.355469 371.621094 471.855469 376.371094 C 459.355469 381.121094 436.851563 387.621094 425.976563 382.746094 C 415.101563 377.871094 398.476563 357.496094 398.476563 357.496094 C 398.476563 357.496094 369.476563 367.253906 362.601563 366.628906 C 362.601563 374.878906 357.851563 392.628906 357.851563 392.628906 C 357.851563 392.628906 352.601563 414.628906 352.226563 420.253906 C 351.851563 425.878906 348.722656 446.378906 353.722656 462.628906 C 358.722656 478.878906 359.222656 487.628906 368.597656 494.628906 C 377.972656 501.625 382.410156 507.1875 382.410156 507.1875 L 44.03125 507.09375 C 44.03125 507.09375 37.089844 502.21875 31.839844 492.84375 C 26.589844 483.46875 16.964844 466.09375 16.964844 466.09375 C 16.964844 466.09375 6.714844 446.46875 -4.785156 437.84375 C -16.285156 429.21875 -31.160156 413.464844 -37.535156 402.089844 C -43.910156 390.714844 -55.160156 368.839844 -57.660156 356.714844 C -60.164063 344.589844 -26.195313 341.96875 -18.445313 341.46875 C -10.695313 340.96875 27.929688 341.59375 27.929688 341.59375 L 28.179688 302.09375 L 29.054688 269.28125 C 29.054688 269.28125 29.523438 266.5625 30.523438 265.21875 C 31.523438 263.871094 31.652344 247.90625 31.652344 247.90625 L 30.839844 231.84375 C 30.839844 231.84375 31.152344 227.910156 33.402344 224.472656 C 35.652344 221.035156 38.277344 214.347656 38.839844 212.597656 C 39.402344 210.84375 42.273438 209.847656 42.839844 209.28125 C 43.402344 208.71875 48.179688 205.21875 50.367188 198.15625 C 52.554688 191.09375 54.679688 193.65625 55.546875 195.515625 Z M 387.519531 150.421875 C 387.519531 150.421875 366.019531 158.421875 343.644531 144.671875 C 343.644531 144.671875 337.457031 139.984375 345.144531 137.859375 C 352.832031 135.734375 367.765625 137.984375 372.453125 140.296875 C 377.144531 142.609375 385.769531 147.984375 387.519531 150.421875 Z M 387.519531 150.421875 "/>
</g>
<path style=" stroke:none;fill-rule:evenodd;fill:rgb(100%,92.576599%,0%);fill-opacity:1;" d="M 175.417969 129.453125 C 175.417969 129.453125 175.570313 123.828125 181.195313 120.078125 C 186.757813 116.371094 198.070313 110.40625 208.121094 107.855469 C 218.171875 105.304688 233.019531 101.03125 248.246094 105.003906 C 263.46875 108.980469 276.070313 114.605469 276.070313 114.605469 C 276.070313 114.605469 278.394531 128.328125 275.996094 143.328125 C 275.996094 143.328125 278.714844 140.238281 280.214844 136.335938 C 280.214844 136.335938 280.140625 146.164063 276.6875 154.335938 C 276.6875 154.335938 291.089844 134.238281 287.488281 113.386719 C 287.488281 113.386719 294.089844 117.136719 296.636719 126.136719 C 296.636719 126.136719 297.839844 95.6875 286.738281 74.6875 C 286.738281 74.6875 294.089844 78.738281 299.039063 89.6875 C 299.039063 89.6875 294.6875 65.386719 283.886719 51.589844 C 283.886719 51.589844 298.289063 59.390625 302.488281 72.589844 C 302.488281 72.589844 321.988281 40.488281 319.886719 19.488281 C 319.886719 19.488281 311.335938 33.738281 286.136719 44.238281 C 286.136719 44.238281 301.738281 24.738281 304.4375 5.539063 C 304.4375 5.539063 273.238281 31.339844 255.535156 38.238281 C 255.535156 38.238281 260.9375 23.238281 258.835938 10.039063 C 258.835938 10.039063 243.835938 33.738281 227.9375 41.539063 L 229.738281 7.039063 C 229.738281 7.039063 216.238281 31.339844 207.835938 39.136719 C 207.835938 39.136719 203.488281 29.539063 203.335938 21.4375 C 203.335938 21.4375 200.1875 32.539063 203.488281 44.839844 C 203.488281 44.839844 183.535156 31.636719 180.085938 11.6875 C 180.085938 11.6875 176.183594 29.238281 180.984375 41.988281 C 185.785156 54.738281 177.382813 62.839844 177.382813 62.839844 C 177.382813 62.839844 165.082031 60.738281 161.035156 49.1875 C 161.035156 49.1875 161.632813 63.738281 175.582031 75.589844 C 175.582031 75.589844 166.695313 79.113281 163.246094 85.941406 C 163.246094 85.941406 169.46875 81.589844 173.371094 81.066406 C 173.371094 81.066406 164.519531 95.988281 160.167969 99.589844 L 173.292969 93.441406 C 173.292969 93.441406 175.09375 87.289063 176.667969 84.964844 C 178.242188 82.640625 178.917969 80.765625 184.769531 76.640625 C 190.617188 72.515625 195.570313 68.914063 203.59375 65.988281 C 211.617188 63.066406 213.832031 62.203125 216.757813 61.902344 C 219.679688 61.601563 226.730469 60.777344 229.882813 62.726563 C 233.03125 64.675781 235.808594 66.777344 235.882813 70.675781 C 235.957031 74.578125 236.707031 84.476563 235.355469 89.726563 C 234.007813 94.976563 231.375 97.160156 230.332031 97.566406 C 229.796875 97.773438 213.308594 97.601563 206.105469 100.304688 C 198.90625 103.003906 190.957031 107.054688 180.308594 115.304688 C 180.308594 115.304688 176.03125 118.378906 174.757813 121.152344 C 174.757813 121.152344 174.15625 124.378906 175.417969 129.453125 Z M 250.308594 66.421875 C 250.308594 66.421875 267.707031 55.171875 274.90625 47.222656 C 282.109375 39.269531 268.757813 64.320313 268.757813 64.320313 C 268.757813 64.320313 249.558594 70.546875 250.308594 66.421875 Z M 250.308594 66.421875 "/>
<path style=" stroke:none;fill-rule:evenodd;fill:rgb(100%,92.576599%,0%);fill-opacity:1;" d="M 343.90625 59.445313 C 343.90625 59.445313 310.90625 69.796875 319.90625 111.796875 C 319.90625 111.796875 322.453125 98.597656 333.402344 91.996094 C 333.402344 91.996094 323.054688 81.347656 343.90625 59.445313 Z M 343.90625 59.445313 "/>
<path style=" stroke:none;fill-rule:evenodd;fill:rgb(100%,92.576599%,0%);fill-opacity:1;" d="M 178.75 131.972656 C 178.75 131.972656 178.449219 127.546875 180.546875 127.171875 C 180.546875 127.171875 191.347656 128.746094 192.546875 136.472656 C 192.546875 136.472656 193.074219 131.785156 190.109375 128.785156 C 187.148438 125.785156 182.835938 124.058594 182.835938 124.058594 C 182.835938 124.058594 188.535156 120.011719 196.035156 116.410156 C 203.535156 112.808594 215.386719 108.910156 224.234375 107.183594 C 224.234375 107.183594 209.003906 116.710938 202.105469 125.636719 L 197.679688 125.1875 C 197.679688 125.1875 201.355469 127.660156 203.230469 127.738281 C 203.230469 127.738281 220.929688 110.710938 234.804688 106.285156 C 234.804688 106.285156 244.554688 106.285156 256.027344 110.488281 C 267.503906 114.6875 273.503906 117.835938 273.503906 117.835938 C 273.503906 117.835938 276.578125 129.988281 271.777344 148.585938 L 271.027344 150.914063 C 271.027344 150.914063 274.027344 149.523438 278.230469 142.664063 C 278.230469 142.664063 276.804688 152.113281 270.652344 163.0625 C 270.652344 163.0625 279.953125 159.613281 285.503906 151.816406 C 291.054688 144.015625 293.230469 145.0625 291.429688 148.589844 C 289.628906 152.113281 288.128906 155.265625 287.605469 157.664063 C 287.605469 157.664063 292.777344 160.515625 286.328125 163.8125 C 279.878906 167.113281 287.605469 171.539063 290.378906 171.164063 C 293.152344 170.789063 297.878906 165.988281 298.929688 162.015625 C 299.980469 158.039063 298.105469 175.664063 288.054688 177.765625 C 288.054688 177.765625 285.054688 179.226563 282.804688 173.226563 C 282.804688 173.226563 279.652344 180.277344 278.378906 178.179688 C 277.105469 176.078125 269.746094 156.730469 245.597656 148.929688 C 245.597656 148.929688 238.335938 167.296875 232.035156 176.144531 C 232.035156 176.144531 248.832031 186.648438 252.433594 195.496094 C 256.03125 204.347656 244.933594 207.195313 242.230469 208.546875 C 239.53125 209.898438 223.03125 217.996094 210.882813 217.695313 C 210.882813 217.695313 204.28125 218.371094 199.707031 210.648438 C 195.128906 202.921875 183.011719 185.523438 183.011719 185.523438 L 185.261719 181.808594 L 183.050781 175.546875 L 179.824219 179.035156 C 179.824219 179.035156 179.148438 177.386719 179.371094 175.546875 L 183.011719 170.074219 L 179.972656 166.621094 L 178.921875 167.710938 Z M 178.75 131.972656 "/>
<path style=" stroke:none;fill-rule:evenodd;fill:rgb(100%,92.576599%,0%);fill-opacity:1;" d="M 299.515625 160.097656 C 299.515625 160.097656 302.742188 153.199219 299.964844 148.773438 C 297.191406 144.347656 296.066406 149.898438 297.566406 151.472656 C 299.066406 153.046875 299.515625 160.097656 299.515625 160.097656 Z M 299.515625 160.097656 "/>
<path style=" stroke:none;fill-rule:evenodd;fill:rgb(100%,92.576599%,0%);fill-opacity:1;" d="M 298.316406 143.972656 C 298.316406 143.972656 304.164063 145.023438 303.714844 151.398438 C 303.265625 157.773438 302.292969 163.472656 302.292969 163.472656 C 302.292969 163.472656 301.617188 167.1875 304.464844 163.4375 C 307.316406 159.6875 307.800781 155.898438 307.128906 149.824219 C 306.453125 143.746094 298.316406 143.972656 298.316406 143.972656 Z M 298.316406 143.972656 "/>
<path style=" stroke:none;fill-rule:evenodd;fill:rgb(100%,92.576599%,0%);fill-opacity:1;" d="M 187.601563 202.0625 C 187.601563 202.0625 194.953125 224.265625 208.902344 226.214844 C 208.902344 226.214844 206.054688 249.015625 207.402344 258.765625 C 208.753906 268.515625 203.804688 264.464844 203.054688 250.816406 C 202.304688 237.164063 193.453125 227.265625 185.203125 220.066406 C 185.203125 220.066406 182.953125 219.164063 187.601563 202.0625 Z M 187.601563 202.0625 "/>
<path style=" stroke:none;fill-rule:evenodd;fill:rgb(100%,92.576599%,0%);fill-opacity:1;" d="M 281.199219 193.066406 C 281.199219 193.066406 281.652344 199.214844 283 201.164063 C 283 201.164063 275.125 209.789063 269.5 218.265625 L 259.226563 218.339844 C 259.226563 218.339844 276.625 205.816406 281.199219 193.066406 Z M 281.199219 193.066406 "/>
<path style=" stroke:none;fill-rule:evenodd;fill:rgb(100%,92.576599%,0%);fill-opacity:1;" d="M 248.320313 326.808594 C 248.320313 326.808594 245.023438 288.410156 263.320313 257.808594 C 281.621094 227.203125 304.71875 193.910156 317.019531 178.308594 C 329.320313 162.710938 334.570313 153.109375 333.21875 136.460938 C 333.21875 136.460938 338.015625 149.511719 336.066406 174.109375 C 336.066406 174.109375 335.164063 179.363281 337.714844 182.210938 C 337.714844 182.210938 335.464844 189.636719 336.816406 195.035156 C 336.816406 195.035156 337.863281 188.585938 340.414063 185.585938 C 340.414063 185.585938 339.511719 199.800781 355.1875 205.050781 C 355.1875 205.050781 348.363281 199.496094 357.960938 179.023438 C 357.960938 179.023438 350.609375 199.351563 362.609375 220.648438 C 374.609375 241.949219 351.207031 222.601563 347.910156 215.550781 C 344.609375 208.496094 343.855469 207.746094 343.707031 211.050781 C 343.554688 214.351563 343.554688 215.027344 343.554688 215.027344 L 340.332031 205.652344 L 330.953125 195.527344 C 330.953125 195.527344 326.90625 191.027344 326.980469 197.246094 C 327.054688 203.476563 324.503906 206.101563 320.675781 200.703125 C 316.851563 195.300781 306.273438 198.601563 305.074219 206.476563 C 303.875 214.351563 307.773438 216.527344 313.550781 217.203125 L 300.199219 223.503906 C 300.199219 223.503906 298.246094 224.328125 300.757813 226.953125 C 303.269531 229.578125 305.96875 233.441406 305.96875 233.441406 C 305.96875 233.441406 296.40625 228.453125 287.480469 230.105469 C 287.480469 230.105469 292.429688 231.679688 294.15625 234.378906 C 295.878906 237.078125 296.328125 238.730469 287.105469 248.40625 L 313.128906 242.78125 C 313.128906 242.78125 318.453125 249.90625 326.855469 253.730469 C 326.855469 253.730469 317.628906 265.882813 299.101563 265.953125 C 299.101563 265.953125 290.777344 265.429688 289.429688 266.703125 C 288.078125 267.980469 278.476563 273.53125 271.128906 289.132813 C 271.128906 289.132813 268.953125 293.445313 269.253906 303.195313 C 269.253906 303.195313 269.4375 304.808594 266.0625 308.328125 C 262.6875 311.855469 248.320313 326.808594 248.320313 326.808594 Z M 275.511719 247.734375 C 275.511719 247.734375 259.460938 261.828125 256.308594 290.785156 C 256.308594 290.785156 260.660156 269.328125 275.511719 247.734375 Z M 275.511719 247.734375 "/>
<path style=" stroke:none;fill-rule:evenodd;fill:rgb(100%,92.576599%,0%);fill-opacity:1;" d="M 396.691406 249.132813 C 396.691406 249.132813 399.003906 251.226563 401.253906 252.007813 C 401.253906 252.007813 388.472656 253.601563 377.53125 253.039063 C 366.59375 252.476563 353.0625 250.726563 336.0625 241.726563 C 319.0625 232.726563 337.1875 233.726563 337.1875 233.726563 C 337.1875 233.726563 340.214844 240.195313 349.652344 244.445313 C 359.09375 248.695313 385.71875 254.445313 396.691406 249.132813 Z M 396.691406 249.132813 "/>
<path style=" stroke:none;fill-rule:evenodd;fill:rgb(100%,92.576599%,0%);fill-opacity:1;" d="M 275.652344 295.320313 C 275.652344 295.320313 275.902344 312.570313 272.652344 319.820313 C 269.402344 327.070313 276.464844 320.507813 277.589844 317.382813 C 278.714844 314.257813 282.210938 306.789063 279.835938 300.664063 C 277.460938 294.539063 283.648438 294.601563 285.460938 293.164063 C 287.273438 291.726563 292.460938 288.726563 291.710938 281.226563 C 291.710938 281.226563 291.523438 277.820313 298.148438 277.632813 C 304.773438 277.445313 313.828125 270.351563 313.828125 270.351563 C 313.828125 270.351563 316.109375 268.882813 311.734375 269.914063 C 307.359375 270.945313 301.671875 271.507813 295.609375 271.445313 C 289.546875 271.382813 291.011719 273.882813 289.480469 275.945313 C 287.949219 278.007813 283.980469 287.320313 275.652344 295.320313 Z M 275.652344 295.320313 "/>
<path style=" stroke:none;fill-rule:evenodd;fill:rgb(100%,92.576599%,0%);fill-opacity:1;" d="M 335.199219 265.570313 C 335.199219 265.570313 326.511719 264.132813 324.886719 266.507813 C 324.886719 266.507813 324.167969 267.445313 321.136719 267.789063 C 318.105469 268.132813 319.355469 269.226563 322.886719 269.507813 C 326.417969 269.789063 304.101563 281.101563 299.976563 282.976563 C 295.851563 284.851563 299.289063 286.789063 300.789063 287.726563 C 302.289063 288.664063 304.976563 289.601563 308.726563 286.414063 C 312.476563 283.226563 322.164063 274.414063 323.976563 273.414063 C 325.789063 272.414063 324.789063 275.164063 323.976563 276.726563 C 323.164063 278.289063 313.914063 291.914063 309.289063 295.164063 C 304.664063 298.414063 311.601563 300.851563 313.230469 301.164063 C 314.855469 301.476563 318.042969 300.976563 321.355469 297.726563 C 324.667969 294.476563 329.542969 289.414063 332.917969 282.351563 C 332.917969 282.351563 335.605469 278.414063 333.855469 284.226563 C 332.105469 290.039063 326.730469 298.164063 322.917969 303.039063 C 322.917969 303.039063 320.855469 305.539063 325.230469 305.789063 C 329.605469 306.039063 332.417969 303.539063 335.730469 298.789063 C 339.042969 294.039063 344.917969 287.601563 347.042969 291.914063 C 349.167969 296.226563 364.941406 304.605469 368.378906 298.414063 C 371.816406 292.230469 373.128906 283.070313 367.503906 278.195313 C 367.503906 278.195313 330.628906 280.195313 335.199219 265.570313 Z M 335.199219 265.570313 "/>
<path style=" stroke:none;fill-rule:evenodd;fill:rgb(100%,92.576599%,0%);fill-opacity:1;" d="M 385.375 276.007813 C 380.875 276.507813 381.25 277.945313 382.0625 279.570313 C 382.875 281.195313 384.5625 288.699219 382.0625 298.324219 C 382.0625 298.324219 390.0625 296.824219 397.1875 288.574219 C 404.3125 280.320313 406 278.074219 398 276.886719 C 390 275.695313 385.375 276.007813 385.375 276.007813 Z M 385.375 276.007813 "/>
<path style=" stroke:none;fill-rule:evenodd;fill:rgb(100%,92.576599%,0%);fill-opacity:1;" d="M 412.683594 283.449219 C 408.308594 281.074219 405.308594 278.199219 405.433594 284.574219 C 405.558594 290.949219 405.308594 296.074219 413.183594 301.824219 C 421.058594 307.574219 438.308594 319.449219 448.808594 321.699219 C 459.308594 323.949219 452.433594 318.636719 448.433594 316.386719 C 444.433594 314.136719 426.808594 300.511719 427.558594 294.261719 C 427.558594 294.261719 428.058594 291.449219 422.996094 289.074219 C 417.933594 286.699219 412.683594 283.449219 412.683594 283.449219 Z M 412.683594 283.449219 "/>
<path style=" stroke:none;fill-rule:evenodd;fill:rgb(100%,92.576599%,0%);fill-opacity:1;" d="M 299.363281 288.886719 C 301.363281 290.136719 304.175781 291.011719 305.800781 289.886719 C 305.800781 289.886719 302.925781 296.886719 304.175781 302.636719 C 305.425781 308.386719 306.113281 314.515625 303.488281 314.078125 C 300.863281 313.640625 298.859375 312.953125 299.234375 309.328125 C 299.609375 305.703125 300.796875 298.390625 299.363281 288.886719 Z M 299.363281 288.886719 "/>
<path style=" stroke:none;fill-rule:evenodd;fill:rgb(100%,92.576599%,0%);fill-opacity:1;" d="M 310.671875 301.828125 C 310.671875 301.828125 315.046875 303.703125 317.796875 302.078125 C 317.796875 302.078125 314.980469 306.890625 318.480469 313.890625 C 321.980469 320.890625 314.480469 317.953125 314.292969 316.015625 C 314.105469 314.078125 313.792969 307.703125 310.671875 301.828125 Z M 310.671875 301.828125 "/>
<path style=" stroke:none;fill-rule:evenodd;fill:rgb(100%,92.576599%,0%);fill-opacity:1;" d="M 325.417969 307.578125 C 325.417969 307.578125 329.792969 307.890625 331.667969 306.015625 C 331.667969 306.015625 330.105469 311.328125 334.167969 316.328125 C 338.230469 321.328125 330.667969 319.953125 329.917969 317.328125 C 329.167969 314.703125 328.542969 311.015625 325.417969 307.578125 Z M 325.417969 307.578125 "/>
<path style=" stroke:none;fill-rule:evenodd;fill:rgb(100%,92.576599%,0%);fill-opacity:1;" d="M 347.914063 311.078125 C 347.914063 311.078125 343.414063 315.828125 341.664063 320.703125 C 341.664063 320.703125 338.851563 315.140625 347.914063 311.078125 Z M 347.914063 311.078125 "/>
<path style=" stroke:none;fill-rule:evenodd;fill:rgb(100%,92.576599%,0%);fill-opacity:1;" d="M 406.90625 262.078125 C 406.90625 262.078125 421.65625 261.828125 432.78125 266.078125 C 443.90625 270.328125 460.78125 278.078125 460.78125 278.078125 C 460.78125 278.078125 456.53125 290.269531 462.03125 295.203125 C 462.03125 295.203125 461.40625 283.019531 465.21875 280.078125 L 498.027344 292.894531 C 498.027344 292.894531 501.902344 293.894531 500.402344 297.519531 C 498.902344 301.144531 491.402344 314.023438 479.402344 315.019531 C 467.402344 316.019531 463.152344 300.394531 463.152344 300.394531 C 463.152344 300.394531 459.089844 300.335938 458.210938 307.898438 C 458.210938 307.898438 455.398438 296.898438 450.898438 295.398438 C 446.398438 293.898438 454.273438 303.835938 452.835938 305.773438 C 451.398438 307.710938 449.023438 299.085938 449.023438 299.085938 C 449.023438 299.085938 445.488281 284.148438 439.863281 281.023438 C 434.238281 277.898438 441.738281 286.773438 441.738281 289.773438 C 441.738281 292.773438 439.238281 289.898438 436.988281 285.023438 C 434.738281 280.148438 430.113281 270.648438 420.863281 270.648438 C 420.863281 270.648438 417.238281 265.898438 406.90625 262.078125 Z M 406.90625 262.078125 "/>
<path style=" stroke:none;fill-rule:evenodd;fill:rgb(100%,92.576599%,0%);fill-opacity:1;" d="M 293.226563 307.964844 C 293.226563 307.964844 288.039063 312.777344 287.539063 313.777344 C 287.039063 314.777344 286.101563 317.777344 289.226563 322.652344 C 292.351563 327.527344 303.722656 346.027344 311.347656 352.277344 C 318.976563 358.527344 306.476563 343.152344 305.726563 341.027344 C 304.976563 338.902344 306.910156 337.777344 314.535156 340.089844 C 322.164063 342.402344 337.910156 342.964844 339.847656 342.527344 C 341.785156 342.089844 342.035156 343.964844 335.785156 345.902344 C 329.535156 347.839844 329.910156 348.464844 332.535156 348.027344 C 335.160156 347.589844 347.785156 343.90625 354.722656 338.714844 C 361.660156 333.527344 353.722656 344.71875 350.535156 347.964844 C 347.347656 351.214844 351.535156 349.152344 354.347656 347.777344 C 357.160156 346.40625 379.472656 335.40625 383.722656 330.15625 C 383.722656 330.15625 378.972656 319.28125 377.847656 309.90625 C 377.847656 309.90625 365.222656 312.03125 350.222656 310.53125 C 350.222656 310.53125 343.972656 314.96875 341.160156 326.34375 C 341.160156 326.34375 330.847656 326.03125 329.035156 324.46875 C 329.035156 324.46875 314.65625 324.78125 310.15625 322.96875 C 310.15625 322.96875 309.921875 322.871094 309.953125 322.09375 C 309.953125 322.09375 301.296875 320.09375 295.171875 314.78125 L 295.109375 307.96875 C 295.109375 307.96875 295.421875 306.71875 293.226563 307.964844 Z M 293.226563 307.964844 "/>
<path style=" stroke:none;fill-rule:evenodd;fill:rgb(100%,92.576599%,0%);fill-opacity:1;" d="M 502.699219 282.121094 C 502.699219 282.121094 496.886719 283.496094 492.636719 283.6875 C 492.636719 283.6875 497.855469 286.15625 503.667969 287.34375 C 503.667969 287.34375 503.527344 285.015625 502.699219 282.121094 Z M 502.699219 282.121094 "/>
<path style=" stroke:none;fill-rule:evenodd;fill:rgb(100%,92.576599%,0%);fill-opacity:1;" d="M 506.699219 281.015625 C 506.699219 281.015625 515.699219 279.453125 520.011719 278.328125 C 520.011719 278.328125 524.636719 284.078125 529.136719 285.828125 C 533.636719 287.578125 528.199219 287.765625 525.074219 286.828125 C 521.949219 285.890625 513.699219 287.953125 510.574219 287.265625 C 510.574219 287.265625 510.261719 284.578125 506.699219 281.015625 Z M 506.699219 281.015625 "/>
<path style=" stroke:none;fill-rule:evenodd;fill:rgb(100%,92.576599%,0%);fill-opacity:1;" d="M 515.695313 296.546875 C 515.695313 296.546875 521.132813 286.359375 531.507813 296.421875 C 541.882813 306.484375 546.757813 320.550781 547.757813 324.425781 C 548.757813 328.300781 549.132813 330.925781 542.257813 328.300781 C 535.382813 325.675781 529.007813 323.988281 525.382813 324.800781 C 521.757813 325.613281 516.695313 323.675781 519.070313 318.050781 C 521.445313 312.425781 517.945313 300.175781 515.695313 296.546875 Z M 515.695313 296.546875 "/>
<path style=" stroke:none;fill-rule:evenodd;fill:rgb(100%,92.576599%,0%);fill-opacity:1;" d="M 503.253906 338.925781 C 507.753906 341.550781 518.503906 344.800781 525.128906 343.175781 C 531.753906 341.550781 544.128906 339.675781 547.378906 346.550781 C 550.628906 353.425781 547.128906 361.300781 534.253906 361.050781 C 521.378906 360.800781 528.222656 358.519531 528.222656 358.519531 C 528.222656 358.519531 537.503906 356.300781 540.503906 352.925781 C 543.503906 349.550781 539.378906 340.550781 534.378906 346.675781 C 529.378906 352.800781 524.75 355.550781 523.3125 354.925781 C 521.878906 354.300781 521.0625 353.175781 522.9375 351.988281 C 524.816406 350.800781 516.941406 350.535156 512.125 350.863281 C 507.3125 351.1875 492.6875 351.300781 488.4375 358.800781 C 484.1875 366.300781 468.246094 367.800781 463.996094 369.550781 C 459.746094 371.300781 453.246094 373.925781 449.621094 373.925781 C 449.621094 373.925781 453.121094 359.296875 460.621094 357.546875 C 468.121094 355.800781 476.996094 355.546875 485.121094 351.296875 C 493.246094 347.046875 499.996094 342.796875 503.253906 338.925781 Z M 503.253906 338.925781 "/>
<path style=" stroke:none;fill-rule:evenodd;fill:rgb(100%,92.576599%,0%);fill-opacity:1;" d="M 333.867188 132.484375 C 333.867188 132.484375 341.867188 127.421875 345.867188 126.421875 C 349.867188 125.421875 354.179688 124.703125 355.179688 124.609375 C 355.179688 124.609375 352.210938 126.046875 351.148438 127.609375 C 350.085938 129.171875 363.085938 124.546875 372.148438 128.234375 C 381.210938 131.921875 394.898438 138.238281 403.148438 144.363281 C 403.148438 144.363281 399.960938 147.675781 392.273438 144.175781 C 384.585938 140.675781 377.710938 136.113281 370.085938 134.109375 C 362.460938 132.109375 348.210938 129.171875 338.335938 132.796875 L 335.273438 133.800781 C 335.273438 133.800781 335.085938 133.171875 333.867188 132.484375 Z M 333.867188 132.484375 "/>
<path style=" stroke:none;fill-rule:evenodd;fill:rgb(100%,92.576599%,0%);fill-opacity:1;" d="M 433.957031 162.550781 C 429.832031 165.800781 429.707031 173.175781 435.957031 180.300781 C 442.207031 187.425781 446.332031 190.300781 446.332031 190.300781 L 449.207031 187.425781 C 449.207031 187.425781 447.457031 195.296875 451.832031 198.425781 C 456.207031 201.550781 473.707031 218.421875 485.957031 224.421875 C 498.207031 230.421875 474.457031 223.171875 469.707031 218.421875 C 464.957031 213.671875 462.582031 213.671875 467.707031 220.296875 C 472.832031 226.921875 497.519531 236.609375 512.269531 235.734375 C 527.019531 234.859375 504.394531 240.734375 501.644531 240.234375 C 498.894531 239.734375 498.582031 241.484375 502.332031 243.171875 C 506.082031 244.859375 515.390625 248.609375 526.265625 249.609375 C 537.140625 250.609375 542.515625 254.359375 544.640625 254.359375 C 546.765625 254.359375 552.582031 254.800781 556.769531 253.238281 C 556.769531 253.238281 534.457031 242.578125 528.832031 242.453125 C 523.207031 242.328125 520.519531 240.703125 524.207031 239.894531 C 527.894531 239.078125 532.019531 239.394531 535.144531 235.519531 C 538.269531 231.640625 552.144531 229.640625 558.144531 230.640625 C 564.144531 231.640625 589.144531 234.769531 599.144531 227.265625 C 609.144531 219.765625 626.890625 196.519531 631.140625 182.769531 C 631.140625 182.769531 631.890625 188.019531 630.890625 192.019531 C 630.890625 192.019531 640.265625 177.894531 642.515625 155.394531 C 642.515625 155.394531 644.640625 162.394531 643.890625 168.019531 C 643.890625 168.019531 651.765625 145.769531 640.765625 120.769531 C 640.765625 120.769531 644.890625 136.269531 638.640625 150.894531 C 632.390625 165.519531 630.390625 166.894531 630.390625 166.894531 C 630.390625 166.894531 627.265625 151.144531 620.265625 146.269531 C 620.265625 146.269531 634.886719 167.144531 619.890625 187.894531 C 604.890625 208.644531 578.636719 220.144531 563.636719 223.144531 C 548.636719 226.144531 538.011719 224.144531 535.511719 223.144531 C 533.011719 222.144531 533.886719 220.519531 541.886719 218.894531 C 549.886719 217.269531 569.132813 208.019531 575.882813 193.519531 C 575.882813 193.519531 572.507813 187.394531 565.132813 182.144531 C 557.757813 176.894531 554.257813 174.269531 552.007813 169.519531 C 552.007813 169.519531 550.007813 174.269531 553.007813 179.894531 C 556.007813 185.519531 551.257813 198.519531 545.632813 202.144531 C 540.007813 205.769531 532.507813 215.144531 502.132813 214.019531 C 471.757813 212.894531 447.066406 174.953125 433.957031 162.550781 Z M 433.957031 162.550781 "/>
<path style=" stroke:none;fill-rule:evenodd;fill:rgb(100%,92.576599%,0%);fill-opacity:1;" d="M 550.066406 165.703125 C 550.066406 165.703125 545.441406 155.078125 550.441406 136.578125 C 555.441406 118.078125 566.566406 115.453125 566.566406 115.453125 C 566.566406 115.453125 546.691406 119.453125 542.441406 136.703125 C 538.191406 153.953125 550.066406 165.703125 550.066406 165.703125 Z M 550.066406 165.703125 "/>
<path style=" stroke:none;fill-rule:evenodd;fill:rgb(100%,92.576599%,0%);fill-opacity:1;" d="M 347.558594 147.953125 C 347.558594 147.953125 359.683594 154.328125 369.433594 155.828125 C 379.183594 157.328125 398.558594 154.703125 408.683594 147.703125 C 418.808594 140.703125 425.308594 135.953125 430.183594 129.078125 C 435.058594 122.203125 445.058594 113.578125 451.558594 110.453125 C 458.058594 107.328125 469.304688 96.703125 470.929688 89.453125 C 472.554688 82.203125 475.429688 66.953125 475.429688 63.578125 C 475.429688 63.578125 473.992188 66.328125 472.304688 67.394531 C 472.304688 67.394531 472.992188 47.953125 468.242188 39.703125 C 463.492188 31.453125 459.992188 28.703125 459.992188 28.703125 C 459.992188 28.703125 468.367188 32.953125 473.617188 47.828125 C 478.867188 62.703125 483.617188 64.953125 485.867188 59.328125 C 488.117188 53.703125 500.238281 19.953125 514.488281 18.203125 C 528.738281 16.453125 543.738281 19.953125 552.738281 28.953125 C 561.738281 37.953125 572.238281 39.703125 577.238281 37.703125 C 582.238281 35.703125 590.238281 34.203125 591.988281 52.453125 C 593.738281 70.703125 595.738281 71.703125 597.863281 67.078125 C 597.863281 67.078125 596.863281 75.578125 606.738281 73.703125 C 616.613281 71.828125 620.988281 66.578125 620.988281 66.578125 C 620.988281 66.578125 615.738281 78.328125 602.738281 77.828125 C 589.738281 77.328125 589.613281 79.078125 587.488281 79.953125 C 585.363281 80.828125 581.863281 82.953125 574.238281 75.203125 C 566.613281 67.453125 561.863281 56.703125 542.363281 53.328125 C 522.863281 49.953125 509.738281 56.828125 499.238281 70.328125 C 488.738281 83.828125 488.238281 94.078125 489.738281 102.328125 C 491.238281 110.578125 494.863281 114.328125 497.488281 114.578125 C 500.113281 114.828125 502.363281 114.953125 507.488281 111.769531 C 512.613281 108.578125 530.113281 95.644531 534.363281 86.394531 C 534.363281 86.394531 534.238281 105.019531 521.488281 113.269531 C 508.738281 121.519531 495.988281 125.394531 488.363281 120.519531 C 480.738281 115.644531 470.113281 117.769531 464.613281 119.769531 C 459.113281 121.769531 447.484375 125.394531 441.488281 133.019531 C 435.488281 140.644531 429.488281 142.269531 425.984375 149.769531 C 422.484375 157.269531 405.359375 165.394531 398.109375 166.894531 C 390.859375 168.394531 365.984375 166.144531 354.484375 158.269531 C 342.984375 150.394531 345.859375 150.328125 347.558594 147.953125 Z M 347.558594 147.953125 "/>
<path style=" stroke:none;fill-rule:evenodd;fill:rgb(100%,92.576599%,0%);fill-opacity:1;" d="M 274.046875 330.675781 L 249.421875 356.425781 C 249.421875 356.425781 246.296875 359.175781 245.296875 367.550781 C 244.296875 375.925781 240.421875 386.675781 240.546875 395.675781 C 240.671875 404.675781 237.796875 447.796875 237.796875 447.796875 C 237.796875 447.796875 237.484375 452.238281 241.796875 463.613281 C 246.105469 474.988281 258.417969 501.738281 258.417969 501.738281 L 260.199219 505.6875 L 319.355469 505.6875 C 319.355469 505.6875 312.605469 492.769531 305.480469 483.519531 C 298.355469 474.269531 284.105469 460.519531 282.855469 456.644531 C 281.605469 452.769531 280.476563 451.390625 282.101563 448.140625 C 283.726563 444.890625 292.476563 451.765625 297.601563 456.890625 C 302.726563 462.019531 330.226563 481.765625 346.976563 492.390625 C 363.726563 503.019531 368.476563 505.6875 368.476563 505.6875 L 379.601563 505.6875 L 369.351563 496.765625 C 369.351563 496.765625 358.726563 491.328125 351.414063 485.578125 C 344.101563 479.828125 331.785156 472.640625 325.035156 465.015625 C 318.285156 457.390625 310.160156 447.390625 308.160156 444.640625 C 306.160156 441.890625 305.597656 437.328125 307.785156 440.542969 C 309.972656 443.765625 314.910156 447.355469 310.785156 439.164063 C 306.660156 430.984375 295.21875 407.105469 293.21875 400.730469 C 291.21875 394.355469 287.070313 378.921875 286.90625 377.164063 C 286.738281 375.414063 286.84375 374.414063 286.9375 373.664063 C 287.03125 372.925781 287.375 367.324219 289.4375 373.730469 C 291.5 380.136719 299.140625 389.953125 301.902344 395.203125 C 304.664063 400.445313 317.777344 423.015625 319.464844 425.328125 C 321.152344 427.640625 325.964844 433.640625 323.964844 421.578125 C 321.964844 409.515625 320.964844 390.078125 316.964844 376.953125 C 293.460938 360.578125 274.046875 330.675781 274.046875 330.675781 Z M 249.230469 390.992188 C 249.230469 390.992188 253.980469 465.992188 261.230469 493.992188 C 261.230469 493.992188 241.476563 431.492188 249.230469 390.992188 Z M 249.230469 390.992188 "/>
<path style=" stroke:none;fill-rule:evenodd;fill:rgb(100%,92.576599%,0%);fill-opacity:1;" d="M 225.160156 270.804688 C 225.160156 272.617188 224.972656 276.117188 224.972656 276.117188 C 224.972656 276.117188 224.566406 279.054688 223.847656 280.648438 C 223.128906 282.242188 213.875 303.804688 213.875 303.804688 L 202.8125 331.992188 L 192 363.117188 C 192 363.117188 190.3125 366.742188 192 367.367188 C 193.6875 367.992188 197.875 368.929688 198.5625 366.992188 C 199.25 365.054688 202.6875 350.429688 207.3125 338.679688 C 211.9375 326.929688 225.9375 291.058594 225.9375 291.058594 L 230 280.433594 C 230 280.433594 230.8125 277.433594 229.75 275.621094 C 228.6875 273.808594 226.5625 271.308594 225.160156 270.804688 Z M 225.160156 270.804688 "/>
<path style=" stroke:none;fill-rule:evenodd;fill:rgb(100%,92.576599%,0%);fill-opacity:1;" d="M 190.089844 417.492188 C 190.089844 417.492188 196.058594 419.117188 196.058594 420.554688 C 196.058594 421.992188 195.871094 430.996094 194.496094 436.929688 C 193.121094 442.867188 189.183594 460.242188 187.933594 467.867188 C 186.683594 475.492188 184.371094 491.617188 184.308594 494.429688 C 184.246094 497.242188 185.246094 496.054688 187.558594 495.992188 C 189.871094 495.929688 195.054688 497.742188 198.367188 500.804688 C 201.679688 503.867188 203.304688 505.6875 203.304688 505.6875 L 193.554688 505.6875 C 193.554688 505.6875 191.679688 501.554688 188.179688 500.429688 C 184.679688 499.304688 183.304688 499.804688 182.085938 499.804688 C 180.867188 499.804688 178.585938 499.054688 179.023438 495.273438 C 179.460938 491.492188 180.71875 478.546875 183.46875 466.171875 C 186.214844 453.796875 192.464844 428.296875 192.339844 426.421875 C 192.214844 424.546875 189.089844 423.171875 189.089844 423.171875 C 189.089844 423.171875 190.027344 420.707031 190.089844 417.492188 Z M 190.089844 417.492188 "/>
<path style=" stroke:none;fill-rule:evenodd;fill:rgb(100%,92.576599%,0%);fill-opacity:1;" d="M 177.492188 278.894531 C 178.929688 278.328125 184.117188 274.894531 182.742188 281.019531 C 181.367188 287.144531 179.804688 301.328125 179.304688 311.328125 C 178.804688 321.328125 170.679688 355.210938 169.679688 358.085938 C 168.679688 360.960938 167.960938 362.710938 166.175781 357.398438 C 164.394531 352.078125 165.113281 351.367188 166.050781 348.304688 C 166.988281 345.242188 169.863281 331.929688 171.363281 322.679688 C 172.863281 313.429688 175.546875 286.617188 175.546875 282.992188 C 175.546875 279.367188 176.421875 279.617188 177.492188 278.894531 Z M 177.492188 278.894531 "/>
<path style=" stroke:none;fill-rule:evenodd;fill:rgb(100%,92.576599%,0%);fill-opacity:1;" d="M 162.417969 292.992188 C 162.417969 292.992188 165.105469 287.554688 165.605469 286.179688 C 166.105469 284.804688 167.761719 282.210938 167.574219 286.398438 C 167.386719 290.585938 166.011719 308.960938 164.261719 315.960938 C 162.511719 322.960938 158.886719 339.335938 158.886719 339.335938 C 158.886719 339.335938 152.261719 319.835938 151.761719 312.460938 Z M 162.417969 292.992188 "/>
<path style=" stroke:none;fill-rule:evenodd;fill:rgb(100%,92.576599%,0%);fill-opacity:1;" d="M 134.441406 316.273438 C 134.441406 316.273438 141.753906 300.773438 154.253906 290.398438 C 154.253906 290.398438 144.878906 308.898438 134.441406 316.273438 Z M 134.441406 316.273438 "/>
<path style=" stroke:none;fill-rule:evenodd;fill:rgb(100%,92.576599%,0%);fill-opacity:1;" d="M 150.066406 339.652344 C 150.066406 339.652344 152.441406 347.214844 153.128906 349.339844 C 153.816406 351.464844 153.441406 353.089844 151.753906 354.902344 C 150.066406 356.714844 146 362.527344 146 362.527344 C 146 362.527344 146 348.527344 150.066406 339.652344 Z M 150.066406 339.652344 "/>
<path style=" stroke:none;fill-rule:evenodd;fill:rgb(100%,92.576599%,0%);fill-opacity:1;" d="M 145.5 319.277344 C 145.5 319.277344 131.371094 334.277344 126.558594 338.339844 C 126.558594 338.339844 125.777344 338.964844 124.902344 343.40625 C 124.027344 347.84375 123.839844 350.53125 125.902344 348.65625 C 127.964844 346.78125 132.839844 342.53125 133.464844 342.40625 C 134.089844 342.28125 135.089844 341.277344 134.027344 345.71875 C 132.964844 350.15625 119.523438 385.34375 108.898438 390.84375 C 108.898438 390.84375 104.835938 396.34375 104.210938 397.03125 C 103.585938 397.71875 104.460938 412.21875 104.585938 414.84375 C 104.710938 417.46875 105.148438 419.40625 107.648438 417.21875 C 110.148438 415.03125 119.960938 406.09375 120.710938 405.53125 C 121.460938 404.96875 124.023438 402.65625 122.273438 408.34375 C 120.523438 414.03125 117.210938 438.59375 117.335938 441.09375 C 117.460938 443.59375 117.085938 449.90625 120.960938 439.71875 C 124.835938 429.53125 131.585938 413.65625 131.585938 413.65625 C 131.585938 413.65625 120.710938 405.53125 145.5 319.277344 Z M 145.5 319.277344 "/>
<path style=" stroke:none;fill-rule:evenodd;fill:rgb(100%,92.576599%,0%);fill-opacity:1;" d="M 122.394531 447.84375 C 121.644531 450.96875 121.144531 454.40625 124.082031 451.03125 C 127.019531 447.65625 134.894531 429.96875 136.519531 424.96875 C 138.144531 419.96875 148.019531 395.21875 149.144531 391.09375 C 150.269531 386.96875 153.707031 373.90625 153.832031 369.40625 C 153.832031 369.40625 146.644531 380.03125 141.207031 387.46875 C 141.207031 387.46875 136.832031 407.28125 133.832031 415.65625 C 130.832031 424.03125 129.457031 431.90625 122.394531 447.84375 Z M 122.394531 447.84375 "/>
<path style=" stroke:none;fill-rule:evenodd;fill:rgb(100%,92.576599%,0%);fill-opacity:1;" d="M 146.457031 425.28125 C 148.707031 418.78125 155.707031 402.78125 153.957031 419.53125 C 152.207031 436.28125 145.707031 460.03125 141.707031 470.03125 C 137.707031 480.03125 134.457031 485.21875 134.457031 485.21875 C 134.457031 485.21875 141.707031 464.59375 141.707031 457.84375 C 141.707031 451.09375 129.457031 485.71875 124.582031 490.46875 C 124.582031 490.46875 127.078125 479.46875 126.703125 475.34375 C 126.332031 471.21875 116.453125 496.09375 112.203125 501.59375 C 112.203125 501.59375 116.703125 486.09375 116.453125 481.84375 C 116.203125 477.59375 107.828125 497.15625 97.578125 505.6875 L 86.328125 505.6875 C 86.328125 505.6875 105.453125 490.84375 112.953125 480.21875 C 120.453125 469.59375 119.949219 463.277344 119.949219 463.277344 C 119.949219 463.277344 132.453125 461.777344 146.457031 425.28125 Z M 146.457031 425.28125 "/>
<path style=" stroke:none;fill-rule:evenodd;fill:rgb(100%,92.576599%,0%);fill-opacity:1;" d="M 92.324219 383.277344 C 95.578125 381.277344 97.203125 382.402344 95.453125 390.027344 C 93.703125 397.652344 91.824219 410.902344 92.199219 420.527344 C 92.574219 430.152344 96.574219 454.027344 93.324219 468.027344 C 90.074219 482.027344 86.324219 490.402344 80.324219 493.902344 C 74.324219 497.402344 73.574219 496.152344 70.324219 489.652344 C 67.074219 483.152344 51.574219 455.402344 47.574219 438.152344 C 43.574219 420.902344 39.949219 407.277344 39.199219 404.027344 C 38.449219 400.777344 38.074219 399.777344 43.074219 396.652344 C 48.074219 393.527344 50.007813 391.902344 51.132813 390.777344 C 52.261719 389.652344 58.011719 385.777344 57.761719 397.902344 C 57.511719 410.027344 61.757813 425.902344 64.757813 434.527344 C 67.757813 443.152344 72.632813 458.902344 73.757813 461.652344 C 74.882813 464.402344 78.257813 469.152344 78.007813 456.402344 C 77.757813 443.652344 74.632813 419.777344 74.632813 409.277344 C 74.632813 398.777344 73.132813 391.277344 73.070313 389.652344 C 73.007813 388.027344 72.507813 385.027344 79.445313 385.714844 C 86.382813 386.402344 90.257813 384.402344 92.324219 383.277344 Z M 92.324219 383.277344 "/>
<path style=" stroke:none;fill-rule:evenodd;fill:rgb(100%,92.576599%,0%);fill-opacity:1;" d="M 49.691406 490.464844 C 52.941406 494.964844 58.816406 502.960938 51.066406 498.085938 C 43.316406 493.214844 22.316406 471.585938 18.816406 465.210938 C 15.316406 458.835938 -7.433594 415.710938 -9.058594 409.960938 C -10.683594 404.210938 -13.308594 401.210938 -4.433594 403.835938 C 4.441406 406.460938 5.253906 404.714844 7.003906 404.398438 C 8.753906 404.085938 11.378906 402.085938 12.066406 409.773438 C 12.753906 417.464844 17.128906 430.152344 20.128906 437.402344 C 23.128906 444.652344 35.753906 472.898438 49.691406 490.464844 Z M 49.691406 490.464844 "/>
<path style=" stroke:none;fill-rule:evenodd;fill:rgb(100%,92.576599%,0%);fill-opacity:1;" d="M 46.0625 373.585938 C 46.0625 373.585938 46.9375 378.710938 47.5625 380.335938 C 48.1875 381.960938 48.5625 383.023438 51.1875 381.023438 C 53.8125 379.023438 61.625 374.710938 68.125 375.460938 C 74.625 376.210938 68.6875 367.902344 67.1875 363.652344 C 65.6875 359.402344 63.9375 359.902344 62.6875 363.402344 C 61.4375 366.902344 49.1875 366.902344 55.4375 358.402344 C 61.6875 349.902344 67.433594 324.148438 67.433594 324.148438 C 67.433594 324.148438 69.589844 313.246094 69.152344 309.058594 C 69.152344 309.058594 61.433594 311.496094 54.371094 307.808594 C 47.308594 304.121094 49.246094 305.933594 48.746094 308.308594 C 48.246094 310.683594 46.617188 319.808594 43.179688 321.933594 C 43.179688 321.933594 42.363281 344.746094 41.988281 351.871094 C 41.613281 358.996094 46.0625 373.585938 46.0625 373.585938 Z M 46.0625 373.585938 "/>
<path style=" stroke:none;fill-rule:evenodd;fill:rgb(100%,92.576599%,0%);fill-opacity:1;" d="M 30.171875 298.714844 C 30.171875 298.714844 29.921875 296.402344 30.796875 296.464844 C 31.671875 296.527344 32.546875 296.214844 32.484375 299.714844 C 32.421875 303.214844 32.109375 315.839844 34.984375 318.839844 C 34.984375 318.839844 33.796875 336.277344 34.546875 359.652344 C 34.546875 359.652344 29.984375 354.21875 30.109375 344.402344 C 30.234375 334.589844 30.171875 298.714844 30.171875 298.714844 Z M 30.171875 298.714844 "/>
<path style=" stroke:none;fill-rule:evenodd;fill:rgb(100%,92.576599%,0%);fill-opacity:1;" d="M 30.886719 274.96875 L 30.574219 284.28125 L 32.820313 286.621094 C 32.820313 286.621094 32.757813 277.15625 36.507813 273.40625 C 40.257813 269.65625 45.257813 268.03125 48.382813 276.59375 C 48.382813 276.59375 50.132813 280.53125 50.007813 296.40625 C 50.007813 296.40625 55.910156 302.441406 68.222656 299.441406 C 68.222656 299.441406 70.097656 299.097656 70.035156 295.097656 C 69.972656 291.097656 69.503906 280.597656 70.316406 276.160156 C 71.128906 271.722656 72.75 268.972656 75.9375 265.410156 C 79.125 261.847656 80.5625 259.535156 81.125 257.660156 C 81.6875 255.785156 83.8125 255.660156 84.875 257.660156 C 85.9375 259.660156 87.1875 260.847656 90.375 258.660156 L 92.65625 257.097656 C 92.65625 257.097656 84.34375 251.972656 81.71875 249.160156 C 79.09375 246.347656 75.03125 253.472656 73.46875 255.347656 C 71.90625 257.222656 61.21875 270.410156 63.84375 261.597656 C 66.46875 252.785156 73.839844 249.285156 74.589844 244.785156 C 74.589844 244.785156 74.683594 243.472656 72.746094 242.410156 C 70.808594 241.347656 68.308594 239.660156 64.496094 243.410156 C 60.683594 247.160156 50.304688 261.347656 47.367188 260.660156 C 44.429688 259.972656 44.929688 258.535156 47.867188 255.722656 C 50.804688 252.910156 56.238281 243.535156 58.113281 240.222656 C 59.988281 236.910156 61.050781 235.191406 66.582031 236.222656 C 72.113281 237.253906 82.894531 242.441406 82.894531 242.441406 C 82.894531 242.441406 71.738281 229.507813 70.550781 228.632813 C 69.363281 227.757813 69.238281 227.382813 65.675781 228.382813 C 62.113281 229.382813 54.925781 232.007813 54.175781 232.507813 C 53.425781 233.007813 51.550781 234.507813 50.113281 237.320313 C 48.675781 240.132813 41.988281 253.945313 37.863281 258.570313 C 33.738281 263.195313 35.644531 257.101563 38.269531 253.695313 C 40.894531 250.289063 41.050781 241.976563 39.300781 237.226563 C 37.550781 232.476563 39.175781 225.476563 44.175781 219.226563 C 49.175781 212.976563 52.425781 212.601563 53.925781 203.851563 C 55.425781 195.101563 53.675781 191.789063 51.925781 196.726563 C 50.175781 201.664063 48.484375 207.164063 43.425781 210.289063 C 38.363281 213.414063 36.171875 222.976563 33.921875 226.726563 C 31.671875 230.476563 31.734375 233.289063 32.359375 239.414063 C 32.984375 245.539063 33.421875 260.605469 31.671875 265.664063 C 29.921875 270.726563 31.171875 270.726563 30.886719 274.96875 Z M 30.886719 274.96875 "/>
<path style=" stroke:none;fill-rule:evenodd;fill:rgb(100%,92.576599%,0%);fill-opacity:1;" d="M 81.730469 243.664063 C 80.230469 243.414063 79.230469 244.476563 81.855469 246.539063 C 84.480469 248.605469 87.105469 250.480469 88.480469 252.355469 C 88.480469 252.355469 87.355469 243.480469 81.730469 243.664063 Z M 81.730469 243.664063 "/>
<path style=" stroke:none;fill-rule:evenodd;fill:rgb(100%,92.576599%,0%);fill-opacity:1;" d="M 217.792969 65.101563 C 217.792969 65.101563 227.605469 60.976563 227.667969 70.101563 C 227.730469 79.226563 226.480469 87.601563 226.480469 87.601563 C 226.480469 87.601563 226.042969 90.476563 221.417969 89.726563 C 216.792969 88.976563 207.105469 92.976563 207.105469 92.976563 C 207.105469 92.976563 186.292969 100.851563 176.417969 109.664063 C 176.417969 109.664063 175.636719 109.929688 175.699219 106.117188 C 175.757813 102.304688 178.164063 89.773438 180.476563 86.085938 C 187.058594 75.59375 204.394531 69.046875 217.792969 65.101563 Z M 201.53125 75.070313 L 203.53125 76.507813 C 203.53125 76.507813 204.34375 77.164063 202.96875 78.632813 C 201.59375 80.101563 200.65625 80.726563 200.65625 80.726563 C 200.65625 80.726563 199.65625 81.320313 198.84375 80.382813 C 198.03125 79.445313 195.25 79.289063 193.5625 80.976563 C 191.875 82.664063 188.871094 86.007813 188.308594 88.632813 C 187.746094 91.257813 187.433594 95.757813 191.121094 95.382813 C 194.808594 95.007813 195.871094 89.007813 195.683594 88.007813 C 195.496094 87.007813 193.433594 85.757813 192.683594 89.007813 C 191.933594 92.257813 190.214844 92.527344 189.996094 89.007813 C 189.78125 85.488281 193.558594 82.570313 194.683594 82.445313 C 195.808594 82.320313 199.496094 81.070313 198.996094 86.570313 C 198.496094 92.070313 197.183594 94.507813 192.308594 97.007813 C 187.433594 99.507813 179.496094 103.414063 179.496094 103.414063 C 179.496094 103.414063 180.867188 96.601563 183.617188 92.601563 C 186.367188 88.601563 186.804688 86.664063 187.992188 84.164063 C 189.179688 81.664063 192.242188 78.480469 193.367188 77.789063 C 194.492188 77.105469 195.804688 76.914063 197.179688 77.664063 C 198.554688 78.414063 201.53125 75.070313 201.53125 75.070313 Z M 224.203125 66.878906 C 224.988281 66.878906 225.625 67.621094 225.625 68.535156 C 225.625 69.453125 224.988281 70.191406 224.203125 70.191406 C 223.417969 70.191406 222.78125 69.453125 222.78125 68.535156 C 222.78125 67.621094 223.417969 66.878906 224.203125 66.878906 Z M 224.203125 75.621094 C 224.988281 75.621094 225.625 76.363281 225.625 77.28125 C 225.625 78.195313 224.988281 78.9375 224.203125 78.9375 C 223.417969 78.9375 222.78125 78.195313 222.78125 77.28125 C 222.78125 76.363281 223.417969 75.621094 224.203125 75.621094 Z M 223.582031 83.4375 C 224.367188 83.4375 225.003906 84.179688 225.003906 85.09375 C 225.003906 86.007813 224.367188 86.746094 223.582031 86.746094 C 222.796875 86.746094 222.160156 86.007813 222.160156 85.09375 C 222.160156 84.179688 222.796875 83.4375 223.582031 83.4375 Z M 223.582031 83.4375 "/>
<path style=" stroke:none;fill-rule:evenodd;fill:rgb(100%,92.576599%,0%);fill-opacity:1;" d="M 185.210938 93.605469 C 185.210938 93.605469 183.117188 97.414063 182.429688 99.664063 L 187.335938 97.539063 C 187.335938 97.539063 185.523438 96.574219 185.210938 93.605469 Z M 185.210938 93.605469 "/>
<path style=" stroke:none;fill-rule:evenodd;fill:rgb(100%,100%,100%);fill-opacity:1;" d="M 214.367188 130.289063 C 214.367188 130.289063 214.132813 131.933594 215.195313 132.902344 C 216.257813 133.871094 216.847656 134.328125 217.285156 134.558594 C 217.722656 134.785156 218.707031 135.222656 219.785156 135.289063 C 220.863281 135.363281 222.566406 135.441406 223.496094 135.308594 C 224.425781 135.175781 228.175781 134.925781 230.207031 134.113281 C 232.238281 133.304688 234.394531 132.476563 235.253906 131.851563 C 235.253906 131.851563 237 130.882813 237.207031 130.695313 C 237.410156 130.507813 238.078125 129.882813 238.421875 128.523438 C 238.765625 127.164063 238.945313 126.210938 238.992188 125.570313 C 239.039063 124.929688 238.96875 122.8125 238.078125 122.09375 C 237.1875 121.371094 236.25 120.761719 233.8125 120.453125 C 231.375 120.144531 228.34375 120.515625 226.453125 121.546875 C 224.5625 122.578125 222.417969 123.621094 220.371094 125.40625 C 218.324219 127.1875 214.757813 129.863281 214.367188 130.289063 Z M 214.367188 130.289063 "/>
<path style=" stroke:none;fill-rule:evenodd;fill:rgb(100%,100%,100%);fill-opacity:1;" d="M 188.523438 135.347656 C 188.523438 135.347656 190.222656 136.925781 190.695313 138.878906 C 191.167969 140.828125 190.945313 142.019531 190.945313 142.019531 C 190.945313 142.019531 190.867188 144.660156 190.351563 145.128906 C 189.835938 145.597656 189.351563 146.070313 187.398438 146.066406 C 185.445313 146.0625 184.195313 145.410156 183.429688 144.878906 C 182.664063 144.347656 181.695313 143.464844 181.695313 143.464844 C 181.695313 143.464844 181.464844 141.246094 181.699219 139.855469 C 181.933594 138.464844 182.136719 136.996094 183.355469 135.433594 C 184.574219 133.871094 187.386719 134.183594 188.523438 135.347656 Z M 188.523438 135.347656 "/>
<path style=" stroke:none;fill-rule:evenodd;fill:rgb(89.0625%,0%,8.616638%);fill-opacity:1;" d="M 188.773438 135.585938 C 188.773438 135.585938 189.566406 136.371094 189.941406 137.078125 C 190.316406 137.78125 190.675781 138.15625 190.847656 139.171875 C 191.019531 140.1875 191.191406 140.746094 191.050781 142.21875 C 190.910156 143.6875 190.878906 144.4375 190.628906 144.796875 C 190.378906 145.15625 189.988281 145.40625 189.703125 145.558594 C 189.417969 145.703125 188.46875 145.871094 187.910156 145.878906 C 187.355469 145.882813 186.160156 145.671875 186.160156 145.671875 C 186.160156 145.671875 185.582031 144.230469 185.617188 142.859375 C 185.648438 141.488281 185.660156 140.164063 186.152344 139.039063 C 186.644531 137.910156 186.933594 137.3125 187.480469 136.703125 C 188.027344 136.089844 188.773438 135.585938 188.773438 135.585938 Z M 188.773438 135.585938 "/>
<path style=" stroke:none;fill-rule:evenodd;fill:rgb(89.0625%,0%,8.616638%);fill-opacity:1;" d="M 223.894531 133.925781 C 223.894531 133.925781 223.265625 130.328125 224.328125 128.175781 C 225.390625 126.019531 227.828125 124.144531 228.734375 123.828125 C 229.640625 123.519531 232.335938 122.644531 233.921875 124.078125 C 235.511719 125.523438 235.546875 127.613281 235.390625 128.800781 C 235.234375 129.988281 234.398438 131.671875 233.453125 132.488281 C 232.511719 133.308594 230.109375 134.050781 228.734375 134.328125 C 227.359375 134.613281 225.710938 134.921875 225.070313 134.804688 C 224.429688 134.683594 224.128906 134.613281 223.894531 133.925781 Z M 223.894531 133.925781 "/>
<path style=" stroke:none;fill-rule:evenodd;fill:rgb(10.594177%,9.812927%,9.423828%);fill-opacity:1;" d="M 157.472656 163.363281 C 157.472656 163.363281 153.722656 173.488281 155.222656 187.988281 C 156.722656 202.488281 159.222656 210.613281 167.347656 222.238281 C 175.472656 233.863281 184.71875 245.613281 187.09375 261.742188 C 189.46875 277.867188 185.84375 301.742188 185.84375 301.742188 C 185.84375 301.742188 177.71875 354.367188 171.46875 371.117188 C 171.46875 371.117188 162.84375 356.867188 157.34375 340.492188 C 151.84375 324.117188 150.53125 312.242188 150.53125 312.242188 C 150.53125 312.242188 163.40625 289.929688 165.53125 283.492188 C 165.53125 283.492188 158.160156 286.796875 155.253906 289.578125 C 155.253906 289.578125 150.691406 300.453125 143.628906 308.328125 C 136.566406 316.203125 133.347656 317.859375 133.347656 317.859375 C 133.347656 317.859375 128.160156 327.800781 125.722656 337.050781 C 125.722656 337.050781 137.011719 327.539063 145.910156 317.113281 C 145.910156 317.113281 150.28125 339.925781 155.03125 350.175781 C 155.03125 350.175781 155.90625 351.675781 153.65625 354.738281 C 151.40625 357.800781 140.84375 370.425781 140.84375 370.425781 L 140.28125 384.863281 L 156.15625 364.050781 C 156.15625 364.050781 157.472656 361.925781 158.40625 365.300781 C 159.34375 368.675781 162.972656 377.488281 168.472656 385.363281 C 168.472656 385.363281 169.285156 386.925781 167.910156 392.238281 C 166.535156 397.550781 155.660156 444.117188 155.660156 444.117188 C 155.660156 444.117188 146.285156 477.886719 128.535156 505.8125 L 159.222656 505.8125 C 159.222656 505.8125 164.535156 499.113281 172.722656 498.800781 L 180.253906 460.519531 L 187.503906 422.519531 C 187.503906 422.519531 188.222656 420.171875 188.503906 416.238281 C 188.785156 412.296875 186.847656 403.863281 186.972656 397.800781 C 187.097656 391.738281 186.660156 373.675781 189.410156 363.550781 C 192.160156 353.425781 213.785156 298.925781 213.785156 298.925781 L 222.34375 278.488281 C 222.34375 278.488281 223.375 276.113281 223.4375 274.925781 C 223.5 273.738281 223.71875 266.800781 223.71875 266.800781 L 224 237.738281 L 223.9375 232.613281 C 223.9375 232.613281 224.0625 229.550781 220.5 229.363281 C 216.9375 229.175781 213.9375 229.675781 213.125 233.988281 C 212.3125 238.300781 211.246094 269.300781 211.246094 269.300781 C 211.246094 269.300781 200.746094 278.550781 198.246094 284.925781 C 198.246094 284.925781 198.121094 271.238281 197.308594 263.863281 C 196.496094 256.488281 195.683594 238.175781 186.683594 232.050781 C 177.683594 225.925781 168.554688 209.550781 164.304688 199.425781 C 160.054688 189.300781 157.613281 176.367188 157.472656 163.363281 Z M 320.449219 270.386719 L 297.699219 281.511719 C 297.699219 281.511719 295.230469 282.480469 294.917969 285.949219 C 294.863281 286.5625 294.832031 287.578125 294.820313 288.835938 C 293.648438 290.40625 290.789063 293.5625 288.949219 295.121094 C 286.886719 296.871094 285.824219 301.058594 285.949219 304.621094 C 286.074219 308.183594 283.011719 316.058594 280.199219 321.308594 C 277.386719 326.558594 273.328125 324.808594 273.328125 324.808594 C 276.652344 326.6875 279.65625 324.28125 282.09375 318.9375 C 284.53125 313.59375 285.285156 310.8125 285.972656 308.746094 C 286.660156 306.6875 286.472656 303.246094 286.597656 302.34375 C 286.722656 301.4375 287.277344 297.464844 289.472656 295.46875 C 291.671875 293.46875 293.226563 291.46875 293.976563 290.621094 C 294.234375 290.335938 294.546875 289.828125 294.816406 289.339844 C 294.785156 295.324219 295.101563 305.855469 295.101563 305.855469 L 295.570313 286.058594 C 295.570313 286.058594 295.804688 283.621094 298.085938 282.214844 C 300.367188 280.808594 315.644531 273.871094 320.449219 270.386719 Z M 290.796875 143.703125 C 290.796875 143.703125 292.734375 140.703125 292.921875 139.894531 C 293.109375 139.078125 300.140625 138.769531 302.734375 140.328125 C 305.328125 141.894531 307.796875 144.328125 308.109375 147.304688 C 308.421875 150.273438 308.390625 152.460938 308.390625 152.460938 C 308.390625 152.460938 307.578125 147.054688 306.953125 146.054688 C 306.328125 145.054688 304.859375 142.242188 302.328125 141.210938 C 299.796875 140.179688 297.421875 139.800781 295.640625 139.992188 C 293.859375 140.179688 293.59375 140.226563 293.59375 140.226563 C 293.59375 140.226563 292.296875 142.929688 290.796875 143.703125 Z M 187.757813 195.960938 C 187.757813 195.960938 197.320313 211.773438 199.945313 216.023438 C 202.570313 220.273438 205.382813 224.398438 216.507813 222.710938 C 227.632813 221.023438 240.007813 219.023438 252.132813 214.148438 C 252.132813 214.148438 232.820313 220.335938 216.132813 222.023438 C 216.132813 222.023438 209.933594 223.34375 206.132813 221.367188 C 202.332031 219.390625 199.128906 213.242188 199.128906 213.242188 C 199.128906 213.242188 189.816406 196.898438 187.757813 195.960938 Z M 296.402344 269.347656 C 296.402344 269.347656 312.996094 268.351563 319.074219 266.226563 C 320.460938 264.851563 325.742188 259.597656 326.554688 258.648438 C 327.492188 257.554688 333.304688 255.523438 327.179688 252.585938 C 321.054688 249.648438 315.179688 243.328125 313.085938 241.050781 C 311.886719 239.746094 311.898438 238.910156 312.128906 238.4375 C 297.863281 242.871094 292.808594 245.28125 292.808594 245.28125 C 301.871094 239.21875 327.558594 233.90625 327.558594 233.90625 C 325.46875 234.488281 323.488281 235.050781 321.617188 235.59375 C 327.972656 246.171875 346.246094 257.003906 370.175781 258.242188 C 394.300781 259.492188 398.707031 256.804688 398.707031 256.804688 C 398.019531 259.460938 395.613281 260.304688 395.613281 260.304688 L 389.957031 261.054688 C 376.519531 262.554688 355.738281 263.710938 355.738281 263.710938 C 355.738281 263.710938 343.019531 259.960938 341.488281 260.148438 C 339.957031 260.335938 338.585938 264.492188 338.585938 264.492188 C 338.585938 264.492188 329.335938 264.054688 327.492188 264.054688 C 325.648438 264.054688 325.679688 264.648438 323.429688 266.117188 C 321.726563 267.226563 319.917969 266.910156 319.136719 266.6875 C 316.214844 267.753906 308.957031 269.605469 296.417969 270.175781 L 293.121094 270.226563 C 293.121094 270.226563 290.839844 270.226563 289.621094 272.164063 C 288.402344 274.101563 285.335938 281.882813 274.835938 293.820313 C 274.835938 293.820313 274.441406 294.664063 274.476563 296.039063 C 274.507813 297.414063 274.691406 299.789063 273.878906 305.289063 C 273.878906 305.289063 273.972656 299.007813 273.285156 295.695313 C 272.597656 292.382813 275.347656 291.507813 276.285156 290.226563 C 277.222656 288.945313 280.316406 286.757813 285.128906 277.757813 L 288.347656 271.914063 C 288.347656 271.914063 289.53125 269.195313 292.4375 269.226563 C 295.34375 269.257813 296.402344 269.347656 296.402344 269.347656 Z M 30.484375 286.179688 L 30.175781 295.054688 L 32.234375 295.210938 C 32.234375 295.210938 33.234375 296.054688 33.234375 297.429688 C 33.234375 298.804688 33.046875 311.117188 33.921875 314.304688 C 34.796875 317.492188 35.578125 318.179688 35.578125 318.179688 C 35.578125 318.179688 35.140625 329.398438 35.328125 334.210938 C 35.515625 339.023438 35.136719 354.648438 35.636719 360.273438 C 36.136719 365.898438 39.136719 366.398438 42.261719 389.898438 L 46.511719 386.679688 C 46.511719 386.679688 47.726563 385.746094 46.039063 379.804688 C 44.351563 373.867188 41.289063 362.308594 40.914063 358.179688 C 40.539063 354.054688 41.851563 321.679688 41.851563 321.679688 C 41.851563 321.679688 43.972656 319.679688 45.472656 316.242188 C 46.972656 312.804688 47.410156 306.492188 47.847656 305.617188 C 48.285156 304.742188 49.097656 304.304688 51.003906 305.273438 C 52.910156 306.242188 58.222656 309.023438 62.316406 308.929688 C 66.410156 308.835938 72.785156 307.621094 74.222656 307.058594 L 74.503906 297.496094 C 74.503906 297.496094 70.753906 300.433594 65.691406 301.121094 C 60.628906 301.808594 55.691406 301.433594 51.253906 299.121094 C 46.816406 296.808594 48.84375 293.527344 48.46875 286.964844 C 48.09375 280.402344 47.46875 275.402344 44.65625 273.214844 C 41.84375 271.027344 38.90625 271.214844 35.84375 276.277344 C 32.78125 281.339844 33.65625 288.589844 33.65625 288.589844 Z M 28.964844 342.777344 C 28.964844 342.777344 28.339844 349.777344 29.964844 353.277344 C 31.589844 356.777344 34.152344 362.964844 34.902344 365.714844 C 35.652344 368.464844 37.902344 378.277344 38.089844 382.902344 C 38.277344 387.527344 38.652344 392.402344 38.652344 392.402344 C 38.652344 392.402344 34.148438 396.15625 31.523438 396.65625 C 28.898438 397.15625 31.898438 406.03125 31.898438 406.03125 C 31.898438 406.03125 39.140625 432.277344 43.390625 444.027344 C 47.640625 455.777344 71.890625 505.8125 71.890625 505.8125 L 63.265625 505.8125 C 63.265625 505.8125 51.949219 485.589844 46.449219 476.839844 C 40.949219 468.089844 24.449219 442.714844 17.699219 414.964844 L 15.230469 401.460938 C 15.230469 401.460938 15.417969 399.960938 12.167969 399.960938 C 8.917969 399.960938 -8.144531 399.648438 -12.269531 395.773438 C -16.394531 391.898438 -19.894531 390.023438 -21.894531 378.148438 C -23.894531 366.273438 -33.523438 367.148438 -35.273438 367.148438 C -37.023438 367.148438 -43.023438 366.648438 -46.960938 363.898438 C -50.898438 361.148438 -57.460938 356.652344 -56.210938 354.214844 C -54.960938 351.777344 -53.386719 348.765625 -41.023438 345.589844 C -28.664063 342.414063 -3.273438 342.652344 -3.273438 342.652344 C -3.273438 342.652344 15.101563 342.214844 28.964844 342.777344 Z M 68.539063 349.402344 C 68.539063 349.402344 65.976563 345.027344 69.726563 346.339844 C 73.476563 347.652344 84.660156 353.589844 88.910156 357.839844 C 93.160156 362.089844 98.039063 365.527344 97.851563 370.902344 C 97.660156 376.277344 91.785156 379.839844 88.160156 380.089844 C 84.535156 380.339844 79.035156 380.464844 77.347656 375.402344 C 75.660156 370.339844 71.347656 356.808594 71.347656 356.808594 C 71.347656 356.808594 70.410156 353.496094 68.539063 349.402344 Z M 232.824219 230.066406 L 232.199219 261.695313 C 232.199219 261.695313 232.386719 274.757813 231.949219 277.070313 C 231.511719 279.382813 226.949219 291.570313 226.949219 291.570313 L 222.949219 302.195313 L 214.011719 325.726563 L 204.386719 354.039063 C 204.386719 354.039063 199.949219 367.101563 199.636719 369.976563 C 199.324219 372.851563 199.324219 383.039063 199.324219 383.039063 L 199.570313 400.199219 C 199.570313 400.199219 199.695313 417.886719 199.382813 419.511719 C 199.070313 421.136719 197.945313 431.386719 197.945313 431.386719 L 193.820313 451.195313 C 193.820313 451.195313 189.320313 470.195313 188.695313 476.820313 C 188.070313 483.445313 186.320313 492.507813 186.632813 493.257813 C 186.945313 494.007813 189.945313 493.882813 191.695313 494.570313 C 193.445313 495.257813 201.195313 500.207031 203.007813 503.007813 C 204.820313 505.8125 204.820313 505.8125 204.820313 505.8125 L 249.257813 505.8125 L 233.695313 476.070313 C 233.695313 476.070313 230.445313 472.070313 230.195313 464.070313 C 229.941406 456.070313 232.191406 409.320313 232.191406 409.320313 L 235.691406 368.320313 C 235.691406 368.320313 237.316406 359.320313 242.566406 353.820313 C 247.816406 348.320313 268.878906 326.945313 268.878906 326.945313 C 268.878906 326.945313 268.628906 322.695313 270.316406 319.570313 C 272.003906 316.445313 273.066406 307.195313 273.066406 307.195313 C 273.066406 307.195313 265.003906 313.632813 258.878906 320.570313 C 252.753906 327.507813 242.691406 338.382813 242.691406 338.382813 C 242.691406 338.382813 239.066406 343.070313 239.691406 337.507813 C 240.316406 331.945313 242.066406 313.570313 242.066406 313.570313 C 242.066406 313.570313 244.375 300.136719 245.3125 295.886719 C 246.25 291.636719 250.5 268.886719 254.75 260.261719 C 259 251.636719 266.25 238.511719 272.5 229.761719 C 278.75 221.011719 298.246094 193.636719 298.246094 193.636719 C 298.246094 193.636719 310.246094 176.886719 310.996094 174.011719 C 311.746094 171.136719 311.621094 150.386719 315.621094 142.761719 C 315.621094 142.761719 309.914063 148.746094 309.226563 151.871094 C 308.539063 154.996094 308.789063 158.777344 307.664063 160.964844 C 306.539063 163.152344 305.195313 173.933594 303.445313 176.121094 C 301.695313 178.308594 295.570313 189.621094 291.945313 194.371094 C 288.320313 199.121094 281.816406 205.183594 279.316406 208.558594 C 276.816406 211.933594 270.566406 220.933594 270.566406 220.933594 L 257.878906 220.839844 C 257.878906 220.839844 255.160156 223.589844 254.722656 225.214844 C 254.285156 226.839844 251.660156 228.589844 250.472656 226.214844 C 249.285156 223.839844 249.097656 222.277344 249.097656 222.277344 C 249.097656 222.277344 245.285156 221.839844 241.472656 223.214844 C 237.660156 224.589844 233.34375 227.089844 233.125 227.886719 C 232.90625 228.683594 232.824219 230.066406 232.824219 230.066406 Z M 273.710938 326.597656 C 277.210938 326.910156 280.648438 324.472656 282.398438 322.535156 C 282.398438 322.535156 290.898438 336.347656 296.398438 342.847656 C 301.898438 349.347656 316.523438 365.472656 327.523438 371.097656 C 338.523438 376.722656 359.398438 368.222656 359.398438 368.222656 C 359.398438 368.222656 359.398438 374.285156 358.335938 377.722656 C 358.335938 377.722656 347.460938 382.351563 342.835938 383.535156 C 338.210938 384.722656 331.085938 385.347656 325.710938 381.910156 C 320.335938 378.476563 312.207031 371.726563 312.207031 371.726563 C 312.207031 371.726563 291.074219 353.101563 282.394531 339.847656 C 273.710938 326.597656 273.710938 326.597656 273.710938 326.597656 Z M 379.261719 309.726563 C 379.261719 309.726563 384.636719 308.347656 393.636719 303.476563 C 393.636719 303.476563 413.511719 315.601563 419.886719 321.601563 C 426.261719 327.601563 446.636719 340.351563 461.761719 344.976563 C 461.761719 344.976563 444.636719 352.351563 439.386719 364.851563 C 434.136719 377.351563 423.761719 379.476563 423.761719 379.476563 C 423.761719 379.476563 410.386719 370.726563 399.511719 354.726563 C 388.636719 338.726563 383.886719 328.476563 379.261719 309.726563 Z M 369.320313 305.164063 C 369.320313 305.164063 372.945313 306.539063 377.882813 306.664063 C 377.882813 306.664063 380.382813 300.914063 380.945313 293.914063 C 381.507813 286.914063 381.257813 282.039063 378.945313 276.476563 C 376.632813 270.914063 390.507813 272.664063 398.570313 272.851563 C 406.632813 273.039063 432.945313 290.039063 432.945313 290.039063 C 432.945313 290.039063 425.757813 274.851563 414.507813 267.664063 C 403.257813 260.476563 392.066406 262.164063 388.941406 262.289063 C 385.816406 262.414063 357.441406 265.664063 340.191406 265.539063 C 340.191406 265.539063 335.628906 269.101563 343.316406 271.351563 C 351.003906 273.601563 359.378906 274.101563 363.378906 273.976563 C 367.378906 273.851563 370.566406 274.855469 372.441406 279.414063 C 374.316406 283.976563 373.878906 290.976563 372.628906 295.730469 C 371.378906 300.480469 369.320313 305.164063 369.320313 305.164063 Z M 339.25 233.730469 C 339.25 233.730469 353.125 230.730469 367.375 236.105469 C 381.625 241.476563 394.5 248.105469 394.5 248.105469 C 394.5 248.105469 388.375 250.539063 380 249.855469 C 371.625 249.164063 357.625 245.976563 354.625 244.664063 C 351.625 243.355469 342.871094 239.730469 339.25 233.730469 Z M 245.796875 151.558594 L 243.921875 155.996094 C 243.921875 155.996094 259.921875 163.746094 266.046875 172.121094 C 272.171875 180.496094 275.421875 187.496094 276.296875 191.871094 C 276.296875 191.871094 280.734375 186.058594 280.734375 184.808594 C 280.734375 183.558594 271.792969 169.433594 269.355469 167.371094 C 266.917969 165.308594 262.167969 157.246094 245.796875 151.558594 Z M 241.582031 160.746094 L 239.707031 164.828125 C 239.707031 164.828125 253.953125 173.394531 259.582031 181.570313 C 265.207031 189.746094 268.535156 195.523438 269.691406 199.65625 C 269.691406 199.65625 273.328125 196.511719 273.328125 195.261719 C 273.328125 194.011719 268.019531 184.15625 265.765625 180.953125 C 263.640625 177.863281 257.953125 169.578125 241.582031 160.746094 Z M 237.457031 169.460938 L 235.175781 173.453125 C 235.175781 173.453125 251.039063 184.515625 255.894531 192.132813 C 260.753906 199.746094 261.578125 201.402344 262.453125 205.984375 C 262.453125 205.984375 266.078125 203.71875 266.015625 202.46875 C 265.953125 201.21875 262.753906 194.523438 260.578125 191.40625 C 258.324219 188.328125 253.828125 179.019531 237.457031 169.460938 Z M 178.652344 168.59375 L 178.777344 174.78125 L 181.746094 170.496094 L 179.496094 167.871094 Z M 179.933594 180.21875 C 179.933594 180.21875 181.183594 183.253906 182.214844 184.746094 L 183.996094 181.84375 L 182.554688 177.496094 Z M 214.292969 130.050781 C 214.292969 130.050781 219.011719 120.675781 226.136719 118.394531 C 233.261719 116.113281 237.886719 117.425781 239.886719 119.488281 C 241.886719 121.550781 242.292969 123.488281 240.730469 127.050781 C 239.136719 130.691406 238.976563 131.144531 233.039063 133.644531 C 227.101563 136.144531 220.320313 136.203125 218.601563 135.703125 C 216.882813 135.203125 216.039063 134.703125 215.226563 133.203125 C 215.226563 133.203125 217.019531 135.308594 219.550781 135.46875 C 222.082031 135.628906 222.417969 135.6875 225.800781 135.273438 C 229.183594 134.859375 232.910156 133.773438 237.628906 130.804688 C 237.972656 130.585938 238.609375 129.585938 239.078125 126.710938 C 239.546875 123.835938 238.972656 121.757813 236.785156 120.882813 C 234.597656 120.007813 230.796875 119.945313 228.6875 120.476563 C 226.578125 121.007813 222.40625 123.199219 219.65625 125.679688 C 216.902344 128.160156 215.496094 128.867188 214.292969 130.050781 Z M 191.628906 139.757813 C 191.628906 139.757813 191.597656 143.585938 191.378906 144.460938 C 191.160156 145.335938 189.910156 146.960938 188.816406 148.117188 C 187.722656 149.273438 185.570313 151.253906 184.644531 151.820313 C 183.714844 152.386719 183.441406 152.335938 183.625 151.992188 C 183.8125 151.648438 186.113281 150.304688 187.207031 149.085938 C 188.300781 147.867188 188.957031 146.820313 187.050781 146.851563 C 185.144531 146.882813 182.828125 145.492188 181.765625 144.492188 C 180.703125 143.492188 179.8125 141.335938 180.15625 138.023438 C 180.5 134.710938 181.8125 132.679688 182.65625 132.085938 C 183.5 131.492188 185.65625 131.398438 187 132.398438 C 188.34375 133.398438 190.4375 135.054688 190.96875 136.398438 C 191.5 137.742188 191.628906 139.757813 191.628906 139.757813 Z M 438.382813 300.367188 C 438.382813 300.367188 439.382813 314.117188 474.382813 326.867188 C 474.382813 326.867188 486.632813 331.367188 506.945313 328.679688 C 506.945313 328.679688 513.882813 327.679688 515.632813 321.179688 C 517.382813 314.679688 516.757813 303.371094 513.632813 297.371094 C 510.507813 291.371094 509.695313 288.683594 505.195313 281.371094 C 505.195313 281.371094 507.816406 291.433594 504.191406 300.308594 C 500.570313 309.183594 491.570313 321.183594 479.441406 320.558594 C 467.316406 319.933594 452.671875 316.519531 438.382813 300.367188 Z M 182.402344 154.1875 L 183.300781 162.101563 C 183.300781 162.101563 183.355469 162.664063 184.449219 164.734375 C 185.542969 166.804688 185.886719 167.328125 186.292969 167.515625 C 186.699219 167.703125 186.933594 167.570313 186.058594 166.164063 C 185.183594 164.757813 184.214844 163.246094 183.996094 161.871094 C 183.777344 160.496094 183.332031 154.46875 182.996094 153.871094 C 182.722656 153.429688 182.402344 153.65625 182.402344 154.1875 Z M 193.335938 164.566406 C 194.019531 164.566406 194.570313 164.78125 194.570313 165.050781 C 194.570313 165.316406 194.019531 165.535156 193.335938 165.535156 C 192.65625 165.535156 192.101563 165.316406 192.101563 165.050781 C 192.101563 164.78125 192.65625 164.566406 193.335938 164.566406 Z M 195.664063 182.160156 C 195.664063 182.160156 201.472656 181.472656 203.195313 180.660156 C 204.914063 179.847656 208.882813 179.472656 211.195313 180.160156 C 213.507813 180.847656 217.570313 182.285156 219.289063 182.910156 C 221.007813 183.535156 221.289063 183.753906 221.632813 183.691406 C 221.976563 183.628906 222.628906 183.039063 221.726563 182.566406 C 220.820313 182.089844 219.507813 182.035156 215.414063 180.410156 C 211.320313 178.785156 210.882813 179.035156 209.132813 178.910156 C 207.382813 178.785156 203.695313 179.410156 202.976563 179.722656 C 202.257813 180.035156 198.566406 180.941406 196.507813 181.253906 C 194.445313 181.566406 195.039063 181.941406 195.664063 182.160156 Z M 194.320313 185.613281 C 194.320313 185.613281 194.839844 186.480469 195.285156 186.953125 C 195.734375 187.433594 196.113281 187.828125 196.410156 187.878906 C 196.707031 187.925781 197.316406 187.425781 196.691406 187.113281 C 196.066406 186.800781 195.597656 186.316406 195.378906 185.847656 C 195.160156 185.378906 195.128906 184.785156 194.847656 184.878906 C 194.566406 184.972656 194.378906 185.066406 194.320313 185.613281 Z M 202.425781 189.753906 C 202.425781 189.753906 204.675781 191.503906 206.957031 191.691406 C 209.238281 191.878906 212.207031 191.597656 212.207031 191.597656 C 212.207031 191.597656 212.691406 191.300781 212.660156 190.972656 C 212.628906 190.644531 212.019531 190.695313 211.472656 190.828125 C 210.921875 190.96875 208.160156 190.988281 207.378906 190.894531 C 206.597656 190.800781 205.535156 190.644531 204.285156 189.953125 C 203.035156 189.269531 203.035156 189.035156 202.832031 188.941406 C 202.628906 188.847656 201.519531 189.019531 202.425781 189.753906 Z M 191.160156 139.855469 C 191.160156 139.855469 190.160156 134.539063 186.347656 134.199219 C 182.535156 133.855469 181.910156 137.539063 181.566406 139.386719 C 181.222656 141.230469 181.535156 143.574219 181.535156 143.574219 C 181.535156 143.574219 183.972656 146.101563 186.410156 146.226563 C 188.847656 146.351563 190.722656 146.039063 190.972656 144.101563 C 191.222656 142.164063 191.160156 139.855469 191.160156 139.855469 Z M 191.160156 139.855469 "/>
</g>
</svg>
